#!OML:ASF F:\VICON\USERDATA\INSTALL\Justin_Nancy\Justin_Nancy.ASF
:FULLY-SPECIFIED
:DEGREES
151
root -10.0836 17.6483 -11.0495 -0.584423 -6.28157 1.7709
lowerback 6.69428 -0.0586748 -2.54187
upperback 0.418772 -0.220064 1.46454
thorax -3.30708 -0.0625675 2.96534
lowerneck -15.9383 -2.64218 -9.90856
upperneck 23.6461 -2.19075 4.45603
head 10.3725 -1.38188 2.95536
rclavicle -4.27387e-015 -3.53837e-014
rhumerus -32.457 -14.632 -78.1784
rradius 31.8204
rwrist 7.54193
rhand -13.2121 13.9297
rfingers 7.12502
rthumb 12.8888 -15.6523
lclavicle -4.27387e-015 -3.53837e-014
lhumerus -32.3841 14.1024 81.3893
lradius 26.3785
lwrist -12.4128
lhand -20.477 16.3691
lfingers 7.12502
lthumb 5.87926 46.2675
rfemur -21.3715 -1.36654 18.515
rtibia 69.5247
rfoot 3.06161 -9.23125
rtoes 8.46277
lfemur -12.3662 -1.76384 -25.9536
ltibia 22.9383
lfoot -8.11849 -1.95574
ltoes 8.1615
152
root -10.0781 17.6423 -10.9337 -0.531869 -6.02732 1.68798
lowerback 6.77268 -0.118257 -2.4108
upperback 0.560931 -0.28931 1.51483
thorax -3.19929 -0.102187 2.94975
lowerneck -16.5092 -2.67481 -9.81136
upperneck 23.6905 -2.18019 4.37966
head 10.4956 -1.37226 2.91252
rclavicle -1.14301e-015 -7.15625e-015
rhumerus -32.2723 -15.174 -78.0612
rradius 31.8224
rwrist 7.52297
rhand -13.0705 14.1093
rfingers 7.12502
rthumb 13.0252 -15.4641
lclavicle -1.14301e-015 -7.15625e-015
lhumerus -31.7711 13.8433 81.6221
lradius 26.8482
lwrist -11.8306
lhand -20.116 17.5948
lfingers 7.12502
lthumb 6.22786 47.4833
rfemur -22.2774 -1.65604 18.5532
rtibia 69.2752
rfoot 2.08795 -9.58513
rtoes 9.89212
lfemur -12.3005 -1.68897 -25.9938
ltibia 23.37
lfoot -8.46443 -2.11461
ltoes 6.76687
153
root -10.0786 17.6288 -10.8185 -0.436818 -5.74917 1.7304
lowerback 6.78679 -0.286179 -2.4967
upperback 0.532821 -0.517947 1.56872
thorax -3.21929 -0.213742 3.07598
lowerneck -16.4207 -2.55963 -9.81764
upperneck 23.5637 -2.01343 4.33996
head 10.4184 -1.29926 2.92043
rclavicle 6.95746e-015 -1.74931e-014
rhumerus -32.2434 -15.3457 -77.9706
rradius 31.5938
rwrist 7.49395
rhand -12.7912 14.7379
rfingers 7.12502
rthumb 13.2945 -14.818
lclavicle 6.95746e-015 -1.74931e-014
lhumerus -31.71 13.7437 81.676
lradius 27.4629
lwrist -11.127
lhand -17.9186 21.2162
lfingers 7.12502
lthumb 8.3489 51.0312
rfemur -23.2283 -1.91476 18.4888
rtibia 68.8797
rfoot 0.866265 -9.80373
rtoes 11.271
lfemur -12.2821 -1.59355 -26.1245
ltibia 23.8598
lfoot -8.98234 -2.33288
ltoes 6.47947
154
root -10.0758 17.6061 -10.6948 -0.467817 -5.47224 1.89866
lowerback 6.75718 -0.414072 -2.66727
upperback 0.551212 -0.70005 1.58393
thorax -3.16843 -0.303078 3.20443
lowerneck -16.205 -2.46335 -9.88305
upperneck 23.4919 -1.89927 4.40383
head 10.3426 -1.24566 2.96927
rclavicle 2.18663e-015 -3.18055e-015
rhumerus -32.4207 -15.2793 -77.8772
rradius 31.5704
rwrist 7.20464
rhand -12.7927 14.533
rfingers 7.12502
rthumb 13.293 -15.0231
lclavicle 2.18663e-015 -3.18055e-015
lhumerus -31.6884 13.4913 81.7764
lradius 28.2083
lwrist -10.4161
lhand -13.2374 28.9303
lfingers 7.12502
lthumb 12.8644 58.5138
rfemur -23.9227 -2.17632 18.2276
rtibia 68.3072
rfoot -0.642649 -9.79679
rtoes 11.4277
lfemur -12.0343 -1.72073 -26.3936
ltibia 24.4025
lfoot -9.70841 -2.31133
ltoes 6.77607
155
root -10.0739 17.579 -10.5733 -0.466165 -5.31188 1.9406
lowerback 6.81712 -0.435287 -2.69975
upperback 0.572878 -0.730816 1.62048
thorax -3.17639 -0.317888 3.26433
lowerneck -16.2818 -2.47883 -9.76534
upperneck 23.5621 -1.91188 4.27269
head 10.3816 -1.25709 2.90158
rclavicle -7.90169e-015 1.27222e-014
rhumerus -32.7846 -15.0582 -77.8117
rradius 31.9581
rwrist 6.63964
rhand -12.9215 14.4024
rfingers 7.12502
rthumb 13.1689 -15.1617
lclavicle -7.90169e-015 1.27222e-014
lhumerus -31.2722 13.0882 81.977
lradius 28.5923
lwrist -9.52199
lhand -8.1428 40.8964
lfingers 7.12502
lthumb 17.7714 70.1044
rfemur -24.6694 -2.29505 18.1264
rtibia 67.5746
rfoot -1.76646 -9.81215
rtoes 11.1898
lfemur -11.8863 -1.7756 -26.5334
ltibia 25.0577
lfoot -10.5011 -2.25067
ltoes 6.60291
156
root -10.0739 17.5575 -10.4534 -0.391942 -5.11669 2.02292
lowerback 6.96415 -0.496165 -2.83171
upperback 0.496232 -0.822892 1.69685
thorax -3.32826 -0.35739 3.43047
lowerneck -16.4148 -2.50178 -9.7584
upperneck 23.6312 -1.8908 4.11461
head 10.4304 -1.26587 2.84709
rclavicle 1.60519e-014 -2.3059e-014
rhumerus -32.9719 -15.1718 -77.5394
rradius 31.8865
rwrist 6.76033
rhand -12.9868 14.9266
rfingers 7.12502
rthumb 13.106 -14.6416
lclavicle 1.60519e-014 -2.3059e-014
lhumerus -31.0468 12.9975 82.1082
lradius 28.887
lwrist -9.0798
lhand -14.1597 27.027
lfingers 7.12502
lthumb 11.9751 56.6645
rfemur -25.4235 -2.37919 18.0211
rtibia 66.6578
rfoot -2.54605 -9.84863
rtoes 10.9546
lfemur -11.9113 -1.71942 -26.7152
ltibia 25.7665
lfoot -11.2343 -2.24871
ltoes 5.77147
157
root -10.0748 17.5345 -10.3297 -0.431995 -5.08963 1.8954
lowerback 7.13133 -0.478553 -2.76534
upperback 0.506301 -0.794551 1.79266
thorax -3.41331 -0.34214 3.49288
lowerneck -16.4463 -2.53966 -9.78803
upperneck 23.6232 -1.93616 4.12953
head 10.4378 -1.28704 2.85096
rclavicle 5.46658e-015 2.38542e-015
rhumerus -32.9425 -15.4903 -77.3688
rradius 31.5722
rwrist 6.98856
rhand -13.1117 15.0554
rfingers 7.12502
rthumb 12.9855 -14.5205
lclavicle 5.46658e-015 2.38542e-015
lhumerus -30.9277 12.5951 82.2444
lradius 29.3337
lwrist -9.28264
lhand -11.3029 34.5251
lfingers 7.12502
lthumb 14.7287 63.9819
rfemur -25.9621 -2.24709 18.171
rtibia 65.5343
rfoot -3.38613 -9.77781
rtoes 8.65708
lfemur -11.7394 -1.83068 -26.6484
ltibia 26.4029
lfoot -11.9798 -1.86751
ltoes 5.55487
158
root -10.074 17.5193 -10.2108 -0.390131 -4.98607 1.92423
lowerback 7.14815 -0.455187 -2.81787
upperback 0.483603 -0.768087 1.79003
thorax -3.44779 -0.327177 3.51788
lowerneck -16.255 -2.51432 -9.72014
upperneck 23.5417 -1.97092 4.24936
head 10.373 -1.28246 2.87715
rclavicle -1.89839e-014 1.51076e-014
rhumerus -33.0737 -15.5519 -77.3688
rradius 31.575
rwrist 6.87122
rhand -12.9911 14.4104
rfingers 7.12502
rthumb 13.1017 -15.1581
lclavicle -1.89839e-014 1.51076e-014
lhumerus -30.8526 11.8592 82.4003
lradius 29.9304
lwrist -8.84544
lhand -17.935 20.9175
lfingers 7.12502
lthumb 8.33311 50.7332
rfemur -26.6127 -2.1967 18.0941
rtibia 64.2223
rfoot -4.36344 -9.59979
rtoes 5.86141
lfemur -11.6105 -1.86606 -26.7588
ltibia 26.9097
lfoot -12.5467 -1.84009
ltoes 5.81317
159
root -10.0736 17.5065 -10.0907 -0.262461 -4.75819 2.20918
lowerback 6.9568 -0.573106 -3.10448
upperback 0.506144 -0.943517 1.78178
thorax -3.29852 -0.413686 3.68447
lowerneck -16.0621 -2.42002 -9.77355
upperneck 23.2362 -1.83803 4.24136
head 10.2153 -1.22207 2.89646
rclavicle 9.0447e-015 8.74653e-015
rhumerus -33.0904 -15.1689 -77.4321
rradius 31.7103
rwrist 6.79386
rhand -12.9726 13.813
rfingers 7.12502
rthumb 13.1196 -15.7543
lclavicle 9.0447e-015 8.74653e-015
lhumerus -30.6956 11.4564 82.5391
lradius 30.612
lwrist -7.61187
lhand -15.9904 24.815
lfingers 7.12502
lthumb 10.2094 54.5473
rfemur -27.3421 -2.29945 17.6898
rtibia 62.7888
rfoot -5.28356 -9.48479
rtoes 5.87664
lfemur -11.5064 -1.93181 -27.1438
ltibia 27.298
lfoot -12.9547 -2.05206
ltoes 6.89382
160
root -10.0745 17.4907 -9.97041 -0.25032 -4.3913 2.286
lowerback 7.02453 -0.699043 -3.09942
upperback 0.544414 -1.11337 1.75583
thorax -3.28267 -0.499366 3.6714
lowerneck -15.8698 -2.37441 -9.59531
upperneck 22.9788 -1.81143 4.12989
head 10.0805 -1.20308 2.82622
rclavicle -8.05078e-015 -3.18055e-015
rhumerus -33.1912 -15.0585 -77.4598
rradius 31.7679
rwrist 6.76579
rhand -13.0961 14.0928
rfingers 7.12502
rthumb 13.0006 -15.4821
lclavicle -8.05078e-015 -3.18055e-015
lhumerus -30.4566 11.0616 82.6138
lradius 31.3243
lwrist -6.90736
lhand -15.707 25.3885
lfingers 7.12502
lthumb 10.4828 55.1071
rfemur -27.7665 -2.4323 17.5419
rtibia 61.1935
rfoot -6.47544 -9.47738
rtoes 6.36776
lfemur -11.2199 -2.09007 -27.3007
ltibia 27.5936
lfoot -13.3843 -2.2458
ltoes 7.13961
161
root -10.0751 17.4769 -9.85136 -0.155596 -4.14777 2.45959
lowerback 7.00652 -0.755411 -3.2611
upperback 0.552601 -1.20141 1.73225
thorax -3.25376 -0.5418 3.74603
lowerneck -15.8372 -2.41215 -9.47536
upperneck 22.8985 -1.87978 4.05282
head 10.0487 -1.23154 2.76822
rclavicle 6.55989e-015 -1.35174e-014
rhumerus -33.2325 -15.1419 -77.3962
rradius 31.6605
rwrist 6.88073
rhand -13.24 14.894
rfingers 7.12502
rthumb 12.8618 -14.6897
lclavicle 6.55989e-015 -1.35174e-014
lhumerus -30.2464 10.7388 82.7256
lradius 31.866
lwrist -6.66215
lhand -15.9684 24.2574
lfingers 7.12502
lthumb 10.2306 53.9886
rfemur -28.2074 -2.54447 17.2924
rtibia 59.4804
rfoot -7.37444 -9.56022
rtoes 3.9285
lfemur -10.99 -2.24955 -27.56
ltibia 27.8023
lfoot -13.7711 -2.22629
ltoes 6.82298
162
root -10.0799 17.4649 -9.73407 0.00630968 -4.09597 2.44685
lowerback 6.98344 -0.755019 -3.37738
upperback 0.540328 -1.20608 1.82895
thorax -3.24875 -0.541853 3.91282
lowerneck -15.9474 -2.42667 -9.52369
upperneck 22.8688 -1.88024 4.07471
head 10.0599 -1.23171 2.78342
rclavicle 3.95085e-014 1.19271e-014
rhumerus -33.2202 -15.2418 -77.2479
rradius 31.5093
rwrist 7.20693
rhand -13.2645 15.1194
rfingers 7.12502
rthumb 12.8382 -14.4658
lclavicle 3.95085e-014 1.19271e-014
lhumerus -29.9605 10.1675 82.9602
lradius 32.3902
lwrist -6.28647
lhand -16.2993 22.9955
lfingers 7.12502
lthumb 9.91136 52.7422
rfemur -28.6874 -2.35147 17.2796
rtibia 57.5489
rfoot -6.47628 -10.1637
rtoes 5.03407
lfemur -10.8196 -2.27656 -27.5926
ltibia 27.9949
lfoot -14.1101 -2.08467
ltoes 6.68845
163
root -10.0858 17.4532 -9.61634 0.0427361 -4.22542 2.28457
lowerback 7.22419 -0.659067 -3.34684
upperback 0.435843 -1.07781 1.97302
thorax -3.50182 -0.469883 4.04116
lowerneck -15.884 -2.40083 -9.62585
upperneck 23.0362 -1.84607 4.15668
head 10.1072 -1.21946 2.83722
rclavicle -2.5345e-015 5.56597e-015
rhumerus -33.3363 -15.2823 -77.0052
rradius 31.3204
rwrist 7.4681
rhand -13.2539 14.5093
rfingers 7.12502
rthumb 12.8484 -15.0752
lclavicle -2.5345e-015 5.56597e-015
lhumerus -29.9146 9.68514 83.1404
lradius 32.9111
lwrist -6.58921
lhand -13.758 28.7595
lfingers 7.12502
lthumb 12.3625 58.374
rfemur -28.95 -1.8496 17.4161
rtibia 55.4213
rfoot -4.46144 -10.789
rtoes 11.6126
lfemur -10.4831 -2.16913 -27.4553
ltibia 28.1373
lfoot -14.5368 -1.93847
ltoes 6.65355
164
root -10.0897 17.4499 -9.49677 0.225051 -4.09259 2.22921
lowerback 7.29252 -0.694763 -3.40218
upperback 0.338181 -1.12759 2.09242
thorax -3.63362 -0.488066 4.20563
lowerneck -16.0155 -2.37734 -9.64215
upperneck 23.1821 -1.80016 4.17187
head 10.1815 -1.19994 2.85387
rclavicle -2.33075e-014 -1.59028e-015
rhumerus -33.3862 -15.4631 -76.7614
rradius 31.1146
rwrist 7.78764
rhand -13.3495 15.0669
rfingers 7.12502
rthumb 12.7563 -14.5234
lclavicle -2.33075e-014 -1.59028e-015
lhumerus -29.9226 9.46373 83.2431
lradius 33.6097
lwrist -6.90868
lhand -13.4122 29.806
lfingers 7.12502
lthumb 12.6958 59.4001
rfemur -29.2313 -1.63948 17.3963
rtibia 53.1033
rfoot -2.78787 -11.1871
rtoes 18.8313
lfemur -10.2793 -2.22235 -27.4306
ltibia 28.2352
lfoot -14.9246 -1.99282
ltoes 7.0935
